<svg fill="#000000" width="30px" height="30px" viewBox="0 0 0.9 0.9" xmlns="http://www.w3.org/2000/svg" data-name="Layer 1"><path d="M0.825 0.217a0.319 0.319 0 0 1 -0.088 0.024 0.155 0.155 0 0 0 0.068 -0.085 0.307 0.307 0 0 1 -0.098 0.037 0.154 0.154 0 0 0 -0.263 0.14 0.436 0.436 0 0 1 -0.317 -0.161 0.156 0.156 0 0 0 -0.021 0.078 0.153 0.153 0 0 0 0.068 0.128 0.152 0.152 0 0 1 -0.07 -0.019v0.002a0.154 0.154 0 0 0 0.124 0.15 0.15 0.15 0 0 1 -0.041 0.006 0.188 0.188 0 0 1 -0.029 -0.003 0.154 0.154 0 0 0 0.144 0.106A0.308 0.308 0 0 1 0.112 0.688a0.3 0.3 0 0 1 -0.037 -0.002 0.434 0.434 0 0 0 0.236 0.069A0.435 0.435 0 0 0 0.75 0.317v-0.02a0.315 0.315 0 0 0 0.075 -0.08"/></svg>